<svg width="99" height="19" viewBox="0 0 99 19" fill="none" xmlns="http://www.w3.org/2000/svg">
<path d="M0.108719 18V1.2H6.85272C8.59672 1.2 9.92472 1.608 10.8367 2.424C11.7647 3.224 12.2287 4.256 12.2287 5.52C12.2287 6.576 11.9407 7.424 11.3647 8.064C10.8047 8.688 10.1167 9.112 9.30072 9.336C10.2607 9.528 11.0527 10.008 11.6767 10.776C12.3007 11.528 12.6127 12.408 12.6127 13.416C12.6127 14.744 12.1327 15.84 11.1727 16.704C10.2127 17.568 8.85272 18 7.09272 18H0.108719ZM3.18072 8.256H6.39672C7.26072 8.256 7.92472 8.056 8.38872 7.656C8.85272 7.256 9.08472 6.688 9.08472 5.952C9.08472 5.248 8.85272 4.696 8.38872 4.296C7.94072 3.88 7.26072 3.672 6.34872 3.672H3.18072V8.256ZM3.18072 15.504H6.61272C7.52472 15.504 8.22872 15.296 8.72472 14.88C9.23672 14.448 9.49272 13.848 9.49272 13.08C9.49272 12.296 9.22872 11.68 8.70072 11.232C8.17272 10.784 7.46072 10.56 6.56472 10.56H3.18072V15.504ZM18.3213 18.288C17.2973 18.288 16.4573 18.128 15.8013 17.808C15.1453 17.472 14.6573 17.032 14.3373 16.488C14.0173 15.944 13.8573 15.344 13.8573 14.688C13.8573 13.584 14.2893 12.688 15.1533 12C16.0173 11.312 17.3133 10.968 19.0413 10.968H22.0653V10.68C22.0653 9.864 21.8333 9.264 21.3693 8.88C20.9053 8.496 20.3293 8.304 19.6413 8.304C19.0173 8.304 18.4733 8.456 18.0093 8.76C17.5453 9.048 17.2573 9.48 17.1453 10.056H14.1453C14.2253 9.192 14.5133 8.44 15.0093 7.8C15.5213 7.16 16.1773 6.672 16.9773 6.336C17.7773 5.984 18.6733 5.808 19.6653 5.808C21.3613 5.808 22.6973 6.232 23.6733 7.08C24.6493 7.928 25.1373 9.128 25.1373 10.68V18H22.5213L22.2333 16.08C21.8813 16.72 21.3853 17.248 20.7453 17.664C20.1213 18.08 19.3133 18.288 18.3213 18.288ZM19.0173 15.888C19.8973 15.888 20.5773 15.6 21.0573 15.024C21.5533 14.448 21.8653 13.736 21.9933 12.888H19.3773C18.5613 12.888 17.9773 13.04 17.6253 13.344C17.2733 13.632 17.0973 13.992 17.0973 14.424C17.0973 14.888 17.2733 15.248 17.6253 15.504C17.9773 15.76 18.4413 15.888 19.0173 15.888ZM32.2488 18C31.0008 18 30.0008 17.696 29.2488 17.088C28.4968 16.48 28.1208 15.4 28.1208 13.848V8.664H26.0808V6.096H28.1208L28.4808 2.904H31.1928V6.096H34.4088V8.664H31.1928V13.872C31.1928 14.448 31.3128 14.848 31.5528 15.072C31.8088 15.28 32.2408 15.384 32.8488 15.384H34.3368V18H32.2488ZM40.1904 18.288C39.1664 18.288 38.3264 18.128 37.6704 17.808C37.0144 17.472 36.5264 17.032 36.2064 16.488C35.8864 15.944 35.7264 15.344 35.7264 14.688C35.7264 13.584 36.1584 12.688 37.0224 12C37.8864 11.312 39.1824 10.968 40.9104 10.968H43.9344V10.68C43.9344 9.864 43.7024 9.264 43.2384 8.88C42.7744 8.496 42.1984 8.304 41.5104 8.304C40.8864 8.304 40.3424 8.456 39.8784 8.76C39.4144 9.048 39.1264 9.48 39.0144 10.056H36.0144C36.0944 9.192 36.3824 8.44 36.8784 7.8C37.3904 7.16 38.0464 6.672 38.8464 6.336C39.6464 5.984 40.5424 5.808 41.5344 5.808C43.2304 5.808 44.5664 6.232 45.5424 7.08C46.5184 7.928 47.0064 9.128 47.0064 10.68V18H44.3904L44.1024 16.08C43.7504 16.72 43.2544 17.248 42.6144 17.664C41.9904 18.08 41.1824 18.288 40.1904 18.288ZM40.8864 15.888C41.7664 15.888 42.4464 15.6 42.9264 15.024C43.4224 14.448 43.7344 13.736 43.8624 12.888H41.2464C40.4304 12.888 39.8464 13.04 39.4944 13.344C39.1424 13.632 38.9664 13.992 38.9664 14.424C38.9664 14.888 39.1424 15.248 39.4944 15.504C39.8464 15.76 40.3104 15.888 40.8864 15.888ZM54.1179 18C52.8699 18 51.8699 17.696 51.1179 17.088C50.3659 16.48 49.9899 15.4 49.9899 13.848V8.664H47.9499V6.096H49.9899L50.3499 2.904H53.0619V6.096H56.2779V8.664H53.0619V13.872C53.0619 14.448 53.1819 14.848 53.4219 15.072C53.6779 15.28 54.1099 15.384 54.7179 15.384H56.2059V18H54.1179ZM62.0595 18.288C61.0355 18.288 60.1955 18.128 59.5395 17.808C58.8835 17.472 58.3955 17.032 58.0755 16.488C57.7555 15.944 57.5955 15.344 57.5955 14.688C57.5955 13.584 58.0275 12.688 58.8915 12C59.7555 11.312 61.0515 10.968 62.7795 10.968H65.8035V10.68C65.8035 9.864 65.5715 9.264 65.1075 8.88C64.6435 8.496 64.0675 8.304 63.3795 8.304C62.7555 8.304 62.2115 8.456 61.7475 8.76C61.2835 9.048 60.9955 9.48 60.8835 10.056H57.8835C57.9635 9.192 58.2515 8.44 58.7475 7.8C59.2595 7.16 59.9155 6.672 60.7155 6.336C61.5155 5.984 62.4115 5.808 63.4035 5.808C65.0995 5.808 66.4355 6.232 67.4115 7.08C68.3875 7.928 68.8755 9.128 68.8755 10.68V18H66.2595L65.9715 16.08C65.6195 16.72 65.1235 17.248 64.4835 17.664C63.8595 18.08 63.0515 18.288 62.0595 18.288ZM62.7555 15.888C63.6355 15.888 64.3155 15.6 64.7955 15.024C65.2915 14.448 65.6035 13.736 65.7315 12.888H63.1155C62.2995 12.888 61.7155 13.04 61.3635 13.344C61.0115 13.632 60.8355 13.992 60.8355 14.424C60.8355 14.888 61.0115 15.248 61.3635 15.504C61.7155 15.76 62.1795 15.888 62.7555 15.888ZM77.903 18.288C77.007 18.288 76.223 18.12 75.551 17.784C74.879 17.448 74.335 16.976 73.919 16.368L73.583 18H70.847V0.719999H73.919V7.8C74.303 7.272 74.807 6.808 75.431 6.408C76.071 6.008 76.895 5.808 77.903 5.808C79.023 5.808 80.023 6.08 80.903 6.624C81.783 7.168 82.479 7.912 82.991 8.856C83.503 9.8 83.759 10.872 83.759 12.072C83.759 13.272 83.503 14.344 82.991 15.288C82.479 16.216 81.783 16.952 80.903 17.496C80.023 18.024 79.023 18.288 77.903 18.288ZM77.255 15.6C78.231 15.6 79.039 15.272 79.679 14.616C80.319 13.96 80.639 13.112 80.639 12.072C80.639 11.032 80.319 10.176 79.679 9.504C79.039 8.832 78.231 8.496 77.255 8.496C76.263 8.496 75.447 8.832 74.807 9.504C74.183 10.16 73.871 11.008 73.871 12.048C73.871 13.088 74.183 13.944 74.807 14.616C75.447 15.272 76.263 15.6 77.255 15.6ZM87.1993 4.248C86.6393 4.248 86.1753 4.08 85.8073 3.744C85.4553 3.408 85.2793 2.984 85.2793 2.472C85.2793 1.96 85.4553 1.544 85.8073 1.224C86.1753 0.887999 86.6393 0.719999 87.1993 0.719999C87.7593 0.719999 88.2153 0.887999 88.5673 1.224C88.9353 1.544 89.1193 1.96 89.1193 2.472C89.1193 2.984 88.9353 3.408 88.5673 3.744C88.2153 4.08 87.7593 4.248 87.1993 4.248ZM85.6633 18V6.096H88.7353V18H85.6633ZM96.2857 18C95.0377 18 94.0377 17.696 93.2857 17.088C92.5337 16.48 92.1577 15.4 92.1577 13.848V8.664H90.1177V6.096H92.1577L92.5177 2.904H95.2297V6.096H98.4457V8.664H95.2297V13.872C95.2297 14.448 95.3497 14.848 95.5897 15.072C95.8457 15.28 96.2777 15.384 96.8857 15.384H98.3737V18H96.2857Z" fill="#F7931A"/>
</svg>
