<?xml version="1.0" encoding="utf-8"?>
<!-- Generator: Adobe Illustrator 24.1.0, SVG Export Plug-In . SVG Version: 6.00 Build 0)  -->
<svg version="1.1" id="Capa_1" xmlns="http://www.w3.org/2000/svg" xmlns:xlink="http://www.w3.org/1999/xlink" x="0px" y="0px"
	 viewBox="0 0 24 24" style="enable-background:new 0 0 24 24;" xml:space="preserve">
<style type="text/css">
	.st0{fill:#8302AD;}
	.st1{fill:#00101E;}
	.st2{fill:#136D60;}
	.st3{fill:#FCFCFB;}
</style>
<rect x="-9.9" y="11.1" class="st0" width="0.4" height="0.4"/>
<rect x="-23.3" y="-22.4" class="st1" width="20.5" height="19.9"/>
<circle class="st2" cx="-12.8" cy="10.6" r="7"/>
<g>
	<path class="st3" d="M-7.9,10.7c0,2.7-2.2,4.8-4.8,4.8c-2.7,0-4.9-2.1-4.9-4.9c0-2.8,2.3-4.8,4.9-4.8C-10.1,5.9-7.9,7.9-7.9,10.7z
		 M-15.9,9.7c0.1,0.1,0.2,0.1,0.3,0.2c0.3,0.2,0.3,0.5,0.1,0.7c-0.2,0.2-0.3,0.3-0.6,0.2c-0.3-0.1-0.4,0-0.3,0.2
		c0.2,0.9,0.8,1.3,1.6,1.1c0.7-0.1,1.1-0.7,1.1-1.5c0-0.7-0.5-1.1-1.3-1.2C-15.4,9.5-15.6,9.5-15.9,9.7z M-9.6,9.7
		C-9.6,9.7-9.7,9.6-9.6,9.7c-0.6-0.3-1.2-0.2-1.6,0.1c-0.4,0.3-0.5,0.8-0.4,1.3c0.1,0.7,0.7,1.1,1.4,1.1c0.7,0,1.1-0.4,1.3-1.2
		c0.1-0.2-0.1-0.3-0.3-0.3c0,0-0.1,0-0.1,0c-0.3,0.1-0.5,0-0.6-0.3c-0.1-0.2-0.1-0.5,0.1-0.6C-9.8,9.8-9.7,9.8-9.6,9.7z"/>
	<path class="st1" d="M-15.9,9.7c0.3-0.2,0.5-0.2,0.8-0.2c0.8,0.1,1.2,0.5,1.3,1.2c0,0.7-0.4,1.3-1.1,1.5c-0.8,0.1-1.4-0.3-1.6-1.1
		c-0.1-0.2,0.1-0.3,0.3-0.2c0.3,0.1,0.4,0,0.6-0.2c0.2-0.2,0.2-0.6-0.1-0.7C-15.7,9.8-15.8,9.8-15.9,9.7z"/>
	<path class="st1" d="M-9.6,9.7c-0.1,0.1-0.2,0.1-0.3,0.2c-0.2,0.2-0.3,0.4-0.1,0.6c0.1,0.3,0.4,0.4,0.6,0.3c0,0,0.1,0,0.1,0
		c0.2-0.1,0.3,0,0.3,0.3c-0.2,0.7-0.6,1.1-1.3,1.2c-0.7,0-1.2-0.4-1.4-1.1c-0.1-0.5,0-1,0.4-1.3C-10.8,9.5-10.2,9.4-9.6,9.7
		C-9.7,9.6-9.6,9.7-9.6,9.7z"/>
</g>
<rect x="-8.5" y="26" transform="matrix(0.7071 -0.7071 0.7071 0.7071 -24.8743 4.7549)" class="st3" width="3.6" height="12.8"/>
<rect x="-1" y="25.2" transform="matrix(0.7071 0.7071 -0.7071 0.7071 22.5274 8.7151)" class="st3" width="3.6" height="12.8"/>
</svg>
